<svg width="81" height="18" viewBox="0 0 81 18" fill="none" xmlns="http://www.w3.org/2000/svg">
<path fill-rule="evenodd" clip-rule="evenodd" d="M4.2325 10.3007L3.45359 11.7668V16.6923H0.933594V0.655929H3.45359V7.6432L6.7525 0.655929H9.2725L5.76741 7.80357L9.2725 16.6923H6.68378L4.2325 10.3007ZM12.83 13.0039C12.83 13.5843 12.9483 13.9928 13.185 14.2296C13.4218 14.4663 13.7387 14.5847 14.1358 14.5847C14.5329 14.5847 14.8498 14.4663 15.0865 14.2296C15.3232 13.9928 15.4416 13.5843 15.4416 13.0039V4.34429C15.4416 3.76393 15.3232 3.35538 15.0865 3.11866C14.8498 2.88193 14.5329 2.76357 14.1358 2.76357C13.7387 2.76357 13.4218 2.88193 13.185 3.11866C12.9483 3.35538 12.83 3.76393 12.83 4.34429V13.0039ZM10.31 4.50466C10.31 3.20647 10.6383 2.20993 11.295 1.51502C11.9518 0.820107 12.8987 0.472656 14.1358 0.472656C15.3729 0.472656 16.3198 0.820107 16.9765 1.51502C17.6332 2.20993 17.9616 3.20647 17.9616 4.50466V12.8436C17.9616 14.1418 17.6332 15.1383 16.9765 15.8332C16.3198 16.5281 15.3729 16.8756 14.1358 16.8756C12.8987 16.8756 11.9518 16.5281 11.295 15.8332C10.6383 15.1383 10.31 14.1418 10.31 12.8436V4.50466ZM22.0918 5.07738V16.6923H19.8238V0.655929H22.9852L25.574 10.2548V0.655929H27.8191V16.6923H25.2303L22.0918 5.07738ZM29.5667 4.50466C29.5667 3.20647 29.876 2.20993 30.4945 1.51502C31.1131 0.820107 32.0409 0.472656 33.278 0.472656C34.5151 0.472656 35.4429 0.820107 36.0614 1.51502C36.68 2.20993 36.9892 3.20647 36.9892 4.50466V5.00866H34.6067V4.34429C34.6067 3.76393 34.496 3.35538 34.2745 3.11866C34.053 2.88193 33.7438 2.76357 33.3467 2.76357C32.9496 2.76357 32.6403 2.88193 32.4189 3.11866C32.1974 3.35538 32.0867 3.76393 32.0867 4.34429C32.0867 4.89411 32.2089 5.37902 32.4532 5.79902C32.6976 6.21902 33.003 6.61611 33.3696 6.99029C33.7361 7.36448 34.1294 7.73865 34.5494 8.11284C34.9694 8.48702 35.3627 8.89556 35.7292 9.33847C36.0958 9.78139 36.4012 10.2854 36.6456 10.8505C36.89 11.4156 37.0121 12.0799 37.0121 12.8436C37.0121 14.1418 36.6952 15.1383 36.0614 15.8332C35.4276 16.5281 34.4921 16.8756 33.255 16.8756C32.018 16.8756 31.0825 16.5281 30.4487 15.8332C29.8149 15.1383 29.498 14.1418 29.498 12.8436V11.8585H31.8805V13.0039C31.8805 13.5843 31.9989 13.989 32.2356 14.2181C32.4723 14.4472 32.7892 14.5617 33.1863 14.5617C33.5834 14.5617 33.9003 14.4472 34.137 14.2181C34.3738 13.989 34.4921 13.5843 34.4921 13.0039C34.4921 12.4541 34.37 11.9692 34.1256 11.5492C33.8812 11.1292 33.5758 10.7321 33.2092 10.3579C32.8427 9.98374 32.4494 9.60957 32.0294 9.23538C31.6094 8.8612 31.2161 8.45266 30.8496 8.00975C30.483 7.56684 30.1776 7.06284 29.9332 6.49775C29.6889 5.93265 29.5667 5.2683 29.5667 4.50466ZM37.9809 0.655929H45.77V2.94684H43.1354V16.6923H40.6154V2.94684H37.9809V0.655929ZM52.3972 16.6923C52.3667 16.5854 52.3361 16.4861 52.3056 16.3945C52.275 16.3028 52.2483 16.1883 52.2254 16.0508C52.2025 15.9134 52.1872 15.7377 52.1796 15.5239C52.172 15.3101 52.1681 15.0428 52.1681 14.7221V12.2021C52.1681 11.4537 52.0383 10.9268 51.7787 10.6214C51.519 10.3159 51.0991 10.1632 50.5187 10.1632H49.6481V16.6923H47.1281V0.655929H50.931C52.2445 0.655929 53.1952 0.96138 53.7832 1.57229C54.3712 2.1832 54.6652 3.1072 54.6652 4.34429V5.60429C54.6652 7.25376 54.1154 8.33811 53.0158 8.85738C53.6572 9.11702 54.0963 9.54083 54.3331 10.1288C54.5698 10.7168 54.6881 11.4308 54.6881 12.2708V14.745C54.6881 15.1421 54.7034 15.4896 54.734 15.7874C54.7645 16.0852 54.8409 16.3868 54.9631 16.6923H52.3972ZM49.6481 2.94684V7.87229H50.6332C51.1067 7.87229 51.4771 7.75011 51.7443 7.50575C52.0116 7.26138 52.1452 6.81848 52.1452 6.17702V4.59629C52.1452 4.01593 52.0421 3.59593 51.836 3.33629C51.6298 3.07666 51.3052 2.94684 50.8623 2.94684H49.6481ZM59.0016 0.655929V13.0268C59.0016 13.6072 59.12 14.0119 59.3567 14.241C59.5934 14.4701 59.9103 14.5847 60.3074 14.5847C60.7045 14.5847 61.0214 14.4701 61.2581 14.241C61.4949 14.0119 61.6132 13.6072 61.6132 13.0268V0.655929H63.9958V12.8665C63.9958 14.1647 63.6789 15.1612 63.0451 15.8561C62.4112 16.551 61.4758 16.8985 60.2387 16.8985C59.0016 16.8985 58.0661 16.551 57.4323 15.8561C56.7985 15.1612 56.4816 14.1647 56.4816 12.8665V0.655929H59.0016ZM72.8583 0.655929H80.6474V2.94684H78.0129V16.6923H75.4929V2.94684H72.8583V0.655929Z" fill="#171819"/>
<path fill-rule="evenodd" clip-rule="evenodd" d="M65.1934 8.98651L71.7388 0.804688V17.1683L65.1934 8.98651Z" fill="#00A4E5"/>
</svg>
