<svg width="103" height="23" viewBox="0 0 103 23" fill="none" xmlns="http://www.w3.org/2000/svg">
<path fill-rule="evenodd" clip-rule="evenodd" d="M5.13129 13.1596L4.13602 15.033V21.3267H0.916016V0.835744H4.13602V9.76393L8.35129 0.835744H11.5713L7.09256 9.96884L11.5713 21.3267H8.26347L5.13129 13.1596ZM16.1169 16.6137C16.1169 17.3553 16.2682 17.8773 16.5707 18.1798C16.8731 18.4823 17.2781 18.6336 17.7855 18.6336C18.2929 18.6336 18.6978 18.4823 19.0003 18.1798C19.3028 17.8773 19.454 17.3553 19.454 16.6137V5.54865C19.454 4.80707 19.3028 4.28505 19.0003 3.98256C18.6978 3.68008 18.2929 3.52884 17.7855 3.52884C17.2781 3.52884 16.8731 3.68008 16.5707 3.98256C16.2682 4.28505 16.1169 4.80707 16.1169 5.54865V16.6137ZM12.8969 5.75356C12.8969 4.09477 13.3165 2.82142 14.1557 1.93347C14.9948 1.04553 16.2047 0.601562 17.7855 0.601562C19.3662 0.601562 20.5761 1.04553 21.4153 1.93347C22.2544 2.82142 22.674 4.09477 22.674 5.75356V16.4088C22.674 18.0676 22.2544 19.341 21.4153 20.2289C20.5761 21.1169 19.3662 21.5608 17.7855 21.5608C16.2047 21.5608 14.9948 21.1169 14.1557 20.2289C13.3165 19.341 12.8969 18.0676 12.8969 16.4088V5.75356ZM27.9515 6.48538V21.3267H25.0535V0.835744H29.0931L32.4009 13.101V0.835744H35.2697V21.3267H31.9618L27.9515 6.48538ZM37.5027 5.75356C37.5027 4.09477 37.8979 2.82142 38.6883 1.93347C39.4787 1.04553 40.6642 0.601562 42.2449 0.601562C43.8257 0.601562 45.0112 1.04553 45.8016 1.93347C46.5919 2.82142 46.9871 4.09477 46.9871 5.75356V6.39756H43.9427V5.54865C43.9427 4.80707 43.8013 4.28505 43.5183 3.98256C43.2353 3.68008 42.8401 3.52884 42.3327 3.52884C41.8253 3.52884 41.4302 3.68008 41.1472 3.98256C40.8642 4.28505 40.7227 4.80707 40.7227 5.54865C40.7227 6.2512 40.8789 6.8708 41.1911 7.40747C41.5033 7.94414 41.8936 8.45153 42.362 8.92965C42.8304 9.40778 43.3329 9.88589 43.8696 10.364C44.4062 10.8421 44.9087 11.3642 45.3771 11.9301C45.8455 12.496 46.2358 13.14 46.548 13.8621C46.8603 14.5842 47.0164 15.4331 47.0164 16.4088C47.0164 18.0676 46.6114 19.341 45.8016 20.2289C44.9917 21.1169 43.7964 21.5608 42.2157 21.5608C40.6349 21.5608 39.4396 21.1169 38.6297 20.2289C37.8199 19.341 37.4149 18.0676 37.4149 16.4088V15.1501H40.4593V16.6137C40.4593 17.3553 40.6105 17.8725 40.913 18.1652C41.2155 18.4579 41.6204 18.6043 42.1278 18.6043C42.6352 18.6043 43.0402 18.4579 43.3427 18.1652C43.6451 17.8725 43.7964 17.3553 43.7964 16.6137C43.7964 15.9112 43.6403 15.2916 43.328 14.7549C43.0158 14.2183 42.6255 13.7109 42.1571 13.2327C41.6887 12.7546 41.1862 12.2765 40.6496 11.7984C40.1129 11.3203 39.6104 10.7982 39.142 10.2323C38.6736 9.66635 38.2834 9.02235 37.9711 8.30029C37.6589 7.57823 37.5027 6.72932 37.5027 5.75356ZM48.2542 0.835744H58.2069V3.76302H54.8406V21.3267H51.6206V3.76302H48.2542V0.835744ZM66.6751 21.3267C66.6361 21.19 66.597 21.0632 66.558 20.9461C66.519 20.829 66.4848 20.6827 66.4556 20.507C66.4263 20.3314 66.4068 20.107 66.397 19.8337C66.3873 19.5605 66.3824 19.219 66.3824 18.8092V15.5892C66.3824 14.633 66.2165 13.9597 65.8847 13.5694C65.553 13.1791 65.0163 12.9839 64.2747 12.9839H63.1624V21.3267H59.9424V0.835744H64.8016C66.48 0.835744 67.6948 1.22604 68.4461 2.00665C69.1974 2.78726 69.5731 3.96792 69.5731 5.54865V7.15865C69.5731 9.2663 68.8706 10.6519 67.4655 11.3154C68.2851 11.6471 68.8462 12.1887 69.1486 12.94C69.4511 13.6914 69.6024 14.6037 69.6024 15.677V18.8385C69.6024 19.3459 69.6219 19.7898 69.6609 20.1704C69.7 20.5509 69.7975 20.9363 69.9536 21.3267H66.6751ZM63.1624 3.76302V10.0567H64.4211C65.0261 10.0567 65.4993 9.90053 65.8408 9.58829C66.1824 9.27605 66.3531 8.71011 66.3531 7.89047V5.87065C66.3531 5.12907 66.2214 4.59241 65.9579 4.26065C65.6945 3.92889 65.2798 3.76302 64.7138 3.76302H63.1624ZM75.114 0.835744V16.643C75.114 17.3846 75.2653 17.9017 75.5677 18.1945C75.8702 18.4872 76.2752 18.6336 76.7826 18.6336C77.29 18.6336 77.6949 18.4872 77.9974 18.1945C78.2999 17.9017 78.4511 17.3846 78.4511 16.643V0.835744H81.4955V16.4381C81.4955 18.0969 81.0905 19.3703 80.2806 20.2582C79.4708 21.1461 78.2755 21.5901 76.6947 21.5901C75.114 21.5901 73.9187 21.1461 73.1088 20.2582C72.2989 19.3703 71.894 18.0969 71.894 16.4381V0.835744H75.114ZM92.8198 0.835744H102.773V3.76302H99.4062V21.3267H96.1862V3.76302H92.8198V0.835744Z" fill="white"/>
<path fill-rule="evenodd" clip-rule="evenodd" d="M83.0254 11.4858L91.389 1.03125V21.9403L83.0254 11.4858Z" fill="#00A4E5"/>
</svg>
